<mxfile host="Electron" modified="2024-06-04T16:50:33.605Z" agent="Mozilla/5.0 (Windows NT 10.0; Win64; x64) AppleWebKit/537.36 (KHTML, like Gecko) draw.io/22.1.2 Chrome/114.0.5735.289 Electron/25.9.4 Safari/537.36" etag="GoBfhbhJhv36peEthDAs" version="22.1.2" type="device" pages="5">
  <diagram id="CZaNoX9rKyj6CsE3Jgk-" name="XTS">
    <mxGraphModel dx="1884" dy="1189" grid="1" gridSize="10" guides="1" tooltips="1" connect="1" arrows="1" fold="1" page="1" pageScale="1" pageWidth="850" pageHeight="1100" math="0" shadow="0">
      <root>
        <mxCell id="0" />
        <mxCell id="1" parent="0" />
      </root>
    </mxGraphModel>
  </diagram>
  <diagram id="ljip_yjUjjNQyckw4A79" name="Serpent_FSM">
    <mxGraphModel dx="1036" dy="654" grid="1" gridSize="10" guides="1" tooltips="1" connect="1" arrows="1" fold="1" page="1" pageScale="1" pageWidth="850" pageHeight="1100" math="0" shadow="0">
      <root>
        <mxCell id="0" />
        <mxCell id="1" parent="0" />
        <mxCell id="9IGr7ucwjtsblKe48enE-12" style="edgeStyle=orthogonalEdgeStyle;orthogonalLoop=1;jettySize=auto;html=1;entryX=0;entryY=0.5;entryDx=0;entryDy=0;curved=1;" parent="1" source="9IGr7ucwjtsblKe48enE-1" target="9IGr7ucwjtsblKe48enE-3" edge="1">
          <mxGeometry relative="1" as="geometry">
            <Array as="points">
              <mxPoint x="275" y="460" />
            </Array>
          </mxGeometry>
        </mxCell>
        <mxCell id="9IGr7ucwjtsblKe48enE-24" style="edgeStyle=orthogonalEdgeStyle;rounded=0;orthogonalLoop=1;jettySize=auto;html=1;endArrow=none;endFill=0;" parent="1" source="9IGr7ucwjtsblKe48enE-1" edge="1">
          <mxGeometry relative="1" as="geometry">
            <mxPoint x="285" y="720" as="targetPoint" />
          </mxGeometry>
        </mxCell>
        <mxCell id="9IGr7ucwjtsblKe48enE-1" value="ENCRYPT" style="ellipse;whiteSpace=wrap;html=1;" parent="1" vertex="1">
          <mxGeometry x="225" y="580" width="120" height="80" as="geometry" />
        </mxCell>
        <mxCell id="9IGr7ucwjtsblKe48enE-13" style="edgeStyle=orthogonalEdgeStyle;rounded=0;orthogonalLoop=1;jettySize=auto;html=1;entryX=1;entryY=0.5;entryDx=0;entryDy=0;" parent="1" source="9IGr7ucwjtsblKe48enE-2" target="9IGr7ucwjtsblKe48enE-1" edge="1">
          <mxGeometry relative="1" as="geometry" />
        </mxCell>
        <mxCell id="9IGr7ucwjtsblKe48enE-2" value="KEY_SCHEDULE" style="ellipse;whiteSpace=wrap;html=1;" parent="1" vertex="1">
          <mxGeometry x="505" y="580" width="120" height="80" as="geometry" />
        </mxCell>
        <mxCell id="9IGr7ucwjtsblKe48enE-4" style="edgeStyle=orthogonalEdgeStyle;orthogonalLoop=1;jettySize=auto;html=1;exitX=1;exitY=0.5;exitDx=0;exitDy=0;entryX=0.5;entryY=0;entryDx=0;entryDy=0;curved=1;" parent="1" source="9IGr7ucwjtsblKe48enE-3" target="9IGr7ucwjtsblKe48enE-2" edge="1">
          <mxGeometry relative="1" as="geometry" />
        </mxCell>
        <mxCell id="9IGr7ucwjtsblKe48enE-18" style="rounded=1;orthogonalLoop=1;jettySize=auto;html=1;exitX=0;exitY=0;exitDx=0;exitDy=0;strokeColor=none;" parent="1" source="9IGr7ucwjtsblKe48enE-3" edge="1">
          <mxGeometry relative="1" as="geometry">
            <mxPoint x="345" y="400" as="targetPoint" />
          </mxGeometry>
        </mxCell>
        <mxCell id="9IGr7ucwjtsblKe48enE-19" style="rounded=0;orthogonalLoop=1;jettySize=auto;html=1;exitX=0;exitY=0;exitDx=0;exitDy=0;endArrow=none;endFill=0;startArrow=classic;startFill=1;" parent="1" source="9IGr7ucwjtsblKe48enE-3" edge="1">
          <mxGeometry relative="1" as="geometry">
            <mxPoint x="345" y="400" as="targetPoint" />
          </mxGeometry>
        </mxCell>
        <mxCell id="9IGr7ucwjtsblKe48enE-3" value="IDLE" style="ellipse;whiteSpace=wrap;html=1;" parent="1" vertex="1">
          <mxGeometry x="365" y="420" width="120" height="80" as="geometry" />
        </mxCell>
        <mxCell id="9IGr7ucwjtsblKe48enE-20" value="i_rstn" style="text;html=1;strokeColor=none;fillColor=none;align=center;verticalAlign=middle;whiteSpace=wrap;rounded=0;" parent="1" vertex="1">
          <mxGeometry x="315" y="370" width="60" height="30" as="geometry" />
        </mxCell>
        <mxCell id="9IGr7ucwjtsblKe48enE-21" value="i_key_valid" style="text;html=1;strokeColor=none;fillColor=none;align=center;verticalAlign=middle;whiteSpace=wrap;rounded=0;" parent="1" vertex="1">
          <mxGeometry x="545" y="490" width="120" height="30" as="geometry" />
        </mxCell>
        <mxCell id="9IGr7ucwjtsblKe48enE-23" value="key_done" style="text;html=1;strokeColor=none;fillColor=none;align=center;verticalAlign=middle;whiteSpace=wrap;rounded=0;" parent="1" vertex="1">
          <mxGeometry x="395" y="590" width="60" height="30" as="geometry" />
        </mxCell>
        <mxCell id="9IGr7ucwjtsblKe48enE-25" value="data[round] = serpent_en_round(data[round - 1])" style="text;html=1;strokeColor=none;fillColor=none;align=center;verticalAlign=middle;whiteSpace=wrap;rounded=0;" parent="1" vertex="1">
          <mxGeometry x="285" y="660" width="200" height="30" as="geometry" />
        </mxCell>
        <mxCell id="9IGr7ucwjtsblKe48enE-26" value="round = round + 1" style="text;html=1;strokeColor=none;fillColor=none;align=center;verticalAlign=middle;whiteSpace=wrap;rounded=0;" parent="1" vertex="1">
          <mxGeometry x="285" y="690" width="200" height="30" as="geometry" />
        </mxCell>
        <mxCell id="9IGr7ucwjtsblKe48enE-27" value="round == 32" style="text;html=1;strokeColor=none;fillColor=none;align=center;verticalAlign=middle;whiteSpace=wrap;rounded=0;" parent="1" vertex="1">
          <mxGeometry x="185" y="490" width="120" height="30" as="geometry" />
        </mxCell>
      </root>
    </mxGraphModel>
  </diagram>
  <diagram id="aLZECnpGwp6YuVH-xaGm" name="serpent_en">
    <mxGraphModel dx="1036" dy="654" grid="1" gridSize="10" guides="1" tooltips="1" connect="1" arrows="1" fold="1" page="1" pageScale="1" pageWidth="850" pageHeight="1100" math="0" shadow="0">
      <root>
        <mxCell id="0" />
        <mxCell id="1" parent="0" />
        <mxCell id="RcsGeXKjLBk-Xikb2rMw-1" value="&lt;font style=&quot;font-size: 17px;&quot;&gt;SERPENT ENCRYPT&lt;/font&gt;" style="rounded=0;whiteSpace=wrap;html=1;" parent="1" vertex="1">
          <mxGeometry x="280" y="150" width="280" height="370" as="geometry" />
        </mxCell>
        <mxCell id="RcsGeXKjLBk-Xikb2rMw-2" value="" style="endArrow=classic;html=1;rounded=0;entryX=0.001;entryY=0.134;entryDx=0;entryDy=0;entryPerimeter=0;" parent="1" target="RcsGeXKjLBk-Xikb2rMw-1" edge="1">
          <mxGeometry width="50" height="50" relative="1" as="geometry">
            <mxPoint x="120" y="200" as="sourcePoint" />
            <mxPoint x="170" y="150" as="targetPoint" />
          </mxGeometry>
        </mxCell>
        <mxCell id="RcsGeXKjLBk-Xikb2rMw-3" value="" style="endArrow=classic;html=1;rounded=0;entryX=0.001;entryY=0.134;entryDx=0;entryDy=0;entryPerimeter=0;" parent="1" edge="1">
          <mxGeometry width="50" height="50" relative="1" as="geometry">
            <mxPoint x="120" y="240" as="sourcePoint" />
            <mxPoint x="280" y="240" as="targetPoint" />
          </mxGeometry>
        </mxCell>
        <mxCell id="RcsGeXKjLBk-Xikb2rMw-4" value="" style="endArrow=classic;html=1;rounded=0;entryX=0.001;entryY=0.134;entryDx=0;entryDy=0;entryPerimeter=0;" parent="1" edge="1">
          <mxGeometry width="50" height="50" relative="1" as="geometry">
            <mxPoint x="120" y="280" as="sourcePoint" />
            <mxPoint x="280" y="280" as="targetPoint" />
          </mxGeometry>
        </mxCell>
        <mxCell id="RcsGeXKjLBk-Xikb2rMw-5" value="" style="endArrow=classic;html=1;rounded=0;entryX=0.001;entryY=0.134;entryDx=0;entryDy=0;entryPerimeter=0;" parent="1" edge="1">
          <mxGeometry width="50" height="50" relative="1" as="geometry">
            <mxPoint x="120" y="320" as="sourcePoint" />
            <mxPoint x="280" y="320" as="targetPoint" />
          </mxGeometry>
        </mxCell>
        <mxCell id="RcsGeXKjLBk-Xikb2rMw-8" value="" style="endArrow=classic;html=1;rounded=0;" parent="1" edge="1">
          <mxGeometry width="50" height="50" relative="1" as="geometry">
            <mxPoint x="560" y="370" as="sourcePoint" />
            <mxPoint x="710" y="370" as="targetPoint" />
          </mxGeometry>
        </mxCell>
        <mxCell id="RcsGeXKjLBk-Xikb2rMw-10" value="" style="endArrow=classic;html=1;rounded=0;" parent="1" edge="1">
          <mxGeometry width="50" height="50" relative="1" as="geometry">
            <mxPoint x="560" y="310" as="sourcePoint" />
            <mxPoint x="710" y="310" as="targetPoint" />
          </mxGeometry>
        </mxCell>
        <mxCell id="h0_2lqMJIqanV0sBnIe--1" value="" style="endArrow=classic;html=1;rounded=0;entryX=0.001;entryY=0.134;entryDx=0;entryDy=0;entryPerimeter=0;" parent="1" edge="1">
          <mxGeometry width="50" height="50" relative="1" as="geometry">
            <mxPoint x="120" y="400" as="sourcePoint" />
            <mxPoint x="280" y="400" as="targetPoint" />
          </mxGeometry>
        </mxCell>
        <mxCell id="h0_2lqMJIqanV0sBnIe--2" value="" style="endArrow=classic;html=1;rounded=0;entryX=0.001;entryY=0.134;entryDx=0;entryDy=0;entryPerimeter=0;" parent="1" edge="1">
          <mxGeometry width="50" height="50" relative="1" as="geometry">
            <mxPoint x="120" y="460" as="sourcePoint" />
            <mxPoint x="280" y="460" as="targetPoint" />
          </mxGeometry>
        </mxCell>
        <mxCell id="h0_2lqMJIqanV0sBnIe--3" value="i_clk" style="text;html=1;strokeColor=none;fillColor=none;align=center;verticalAlign=middle;whiteSpace=wrap;rounded=0;" parent="1" vertex="1">
          <mxGeometry x="120" y="170" width="50" height="30" as="geometry" />
        </mxCell>
        <mxCell id="h0_2lqMJIqanV0sBnIe--4" value="i_rstn" style="text;html=1;strokeColor=none;fillColor=none;align=center;verticalAlign=middle;whiteSpace=wrap;rounded=0;" parent="1" vertex="1">
          <mxGeometry x="120" y="210" width="50" height="30" as="geometry" />
        </mxCell>
        <mxCell id="h0_2lqMJIqanV0sBnIe--5" value="i_master_key_valid" style="text;html=1;strokeColor=none;fillColor=none;align=center;verticalAlign=middle;whiteSpace=wrap;rounded=0;" parent="1" vertex="1">
          <mxGeometry x="120" y="290" width="120" height="30" as="geometry" />
        </mxCell>
        <mxCell id="dkTdfHDqH9pCmGVVwpD2-1" value="i_enable_encrypt" style="text;html=1;strokeColor=none;fillColor=none;align=center;verticalAlign=middle;whiteSpace=wrap;rounded=0;" parent="1" vertex="1">
          <mxGeometry x="120" y="250" width="110" height="30" as="geometry" />
        </mxCell>
        <mxCell id="364QMd41hfhvyaQ6qfVG-1" value="i_data" style="text;html=1;strokeColor=none;fillColor=none;align=center;verticalAlign=middle;whiteSpace=wrap;rounded=0;" parent="1" vertex="1">
          <mxGeometry x="120" y="370" width="80" height="30" as="geometry" />
        </mxCell>
        <mxCell id="RW1qEgDjdDjHaJWzk_90-1" value="i_key" style="text;html=1;strokeColor=none;fillColor=none;align=center;verticalAlign=middle;whiteSpace=wrap;rounded=0;" parent="1" vertex="1">
          <mxGeometry x="120" y="430" width="80" height="30" as="geometry" />
        </mxCell>
        <mxCell id="rW0JqWubwJpAijYIUQld-1" value="o_data_valid" style="text;html=1;strokeColor=none;fillColor=none;align=center;verticalAlign=middle;whiteSpace=wrap;rounded=0;" parent="1" vertex="1">
          <mxGeometry x="560" y="280" width="120" height="30" as="geometry" />
        </mxCell>
        <mxCell id="rW0JqWubwJpAijYIUQld-2" value="o_data" style="text;html=1;strokeColor=none;fillColor=none;align=center;verticalAlign=middle;whiteSpace=wrap;rounded=0;" parent="1" vertex="1">
          <mxGeometry x="560" y="340" width="90" height="30" as="geometry" />
        </mxCell>
        <mxCell id="hYUyb390KtYIVvGK36Ji-1" value="" style="endArrow=none;html=1;rounded=0;" edge="1" parent="1">
          <mxGeometry width="50" height="50" relative="1" as="geometry">
            <mxPoint x="240" y="470" as="sourcePoint" />
            <mxPoint x="260" y="450" as="targetPoint" />
          </mxGeometry>
        </mxCell>
        <mxCell id="hYUyb390KtYIVvGK36Ji-2" value="" style="endArrow=none;html=1;rounded=0;" edge="1" parent="1">
          <mxGeometry width="50" height="50" relative="1" as="geometry">
            <mxPoint x="240" y="410" as="sourcePoint" />
            <mxPoint x="260" y="390" as="targetPoint" />
          </mxGeometry>
        </mxCell>
        <mxCell id="hYUyb390KtYIVvGK36Ji-3" value="128" style="text;html=1;strokeColor=none;fillColor=none;align=center;verticalAlign=middle;whiteSpace=wrap;rounded=0;" vertex="1" parent="1">
          <mxGeometry x="220" y="360" width="60" height="30" as="geometry" />
        </mxCell>
        <mxCell id="hYUyb390KtYIVvGK36Ji-4" value="256" style="text;html=1;strokeColor=none;fillColor=none;align=center;verticalAlign=middle;whiteSpace=wrap;rounded=0;" vertex="1" parent="1">
          <mxGeometry x="220" y="420" width="60" height="30" as="geometry" />
        </mxCell>
        <mxCell id="hYUyb390KtYIVvGK36Ji-5" value="" style="endArrow=none;html=1;rounded=0;" edge="1" parent="1">
          <mxGeometry width="50" height="50" relative="1" as="geometry">
            <mxPoint x="670" y="380" as="sourcePoint" />
            <mxPoint x="690" y="360" as="targetPoint" />
          </mxGeometry>
        </mxCell>
        <mxCell id="hYUyb390KtYIVvGK36Ji-6" value="128" style="text;html=1;strokeColor=none;fillColor=none;align=center;verticalAlign=middle;whiteSpace=wrap;rounded=0;" vertex="1" parent="1">
          <mxGeometry x="650" y="330" width="60" height="30" as="geometry" />
        </mxCell>
      </root>
    </mxGraphModel>
  </diagram>
  <diagram id="AxFS7N9ykOPjRmIv8KcK" name="serpent_en_fsm">
    <mxGraphModel dx="1219" dy="769" grid="1" gridSize="10" guides="1" tooltips="1" connect="1" arrows="1" fold="1" page="1" pageScale="1" pageWidth="850" pageHeight="1100" math="0" shadow="0">
      <root>
        <mxCell id="0" />
        <mxCell id="1" parent="0" />
        <mxCell id="wwL6HSC9P-zvST8-2VD3-7" style="edgeStyle=orthogonalEdgeStyle;orthogonalLoop=1;jettySize=auto;html=1;exitX=0;exitY=0.5;exitDx=0;exitDy=0;entryX=0.5;entryY=1;entryDx=0;entryDy=0;curved=1;" parent="1" source="wwL6HSC9P-zvST8-2VD3-1" target="wwL6HSC9P-zvST8-2VD3-4" edge="1">
          <mxGeometry relative="1" as="geometry" />
        </mxCell>
        <mxCell id="gSLNPjiPlKFrK9HhmnGK-14" style="edgeStyle=orthogonalEdgeStyle;rounded=0;orthogonalLoop=1;jettySize=auto;html=1;endArrow=none;endFill=0;" parent="1" source="wwL6HSC9P-zvST8-2VD3-1" edge="1">
          <mxGeometry relative="1" as="geometry">
            <mxPoint x="420" y="800" as="targetPoint" />
          </mxGeometry>
        </mxCell>
        <mxCell id="wwL6HSC9P-zvST8-2VD3-1" value="ENCRYPT" style="ellipse;whiteSpace=wrap;html=1;" parent="1" vertex="1">
          <mxGeometry x="360" y="640" width="120" height="80" as="geometry" />
        </mxCell>
        <mxCell id="wwL6HSC9P-zvST8-2VD3-6" style="orthogonalLoop=1;jettySize=auto;html=1;entryX=1;entryY=0.5;entryDx=0;entryDy=0;curved=1;" parent="1" source="wwL6HSC9P-zvST8-2VD3-2" target="wwL6HSC9P-zvST8-2VD3-1" edge="1">
          <mxGeometry relative="1" as="geometry">
            <Array as="points">
              <mxPoint x="590" y="680" />
            </Array>
          </mxGeometry>
        </mxCell>
        <mxCell id="gSLNPjiPlKFrK9HhmnGK-5" style="edgeStyle=orthogonalEdgeStyle;rounded=0;orthogonalLoop=1;jettySize=auto;html=1;endArrow=none;endFill=0;" parent="1" source="wwL6HSC9P-zvST8-2VD3-2" edge="1">
          <mxGeometry relative="1" as="geometry">
            <mxPoint x="780" y="550" as="targetPoint" />
          </mxGeometry>
        </mxCell>
        <mxCell id="wwL6HSC9P-zvST8-2VD3-2" value="KEY_SCHEDULE" style="ellipse;whiteSpace=wrap;html=1;" parent="1" vertex="1">
          <mxGeometry x="530" y="510" width="120" height="80" as="geometry" />
        </mxCell>
        <mxCell id="wwL6HSC9P-zvST8-2VD3-9" style="edgeStyle=orthogonalEdgeStyle;orthogonalLoop=1;jettySize=auto;html=1;entryX=0.5;entryY=0;entryDx=0;entryDy=0;curved=1;" parent="1" source="wwL6HSC9P-zvST8-2VD3-3" target="wwL6HSC9P-zvST8-2VD3-2" edge="1">
          <mxGeometry relative="1" as="geometry" />
        </mxCell>
        <mxCell id="XyMOXFmrmEDp1pK5N-XL-1" style="edgeStyle=orthogonalEdgeStyle;rounded=0;orthogonalLoop=1;jettySize=auto;html=1;endArrow=none;endFill=0;startArrow=classic;startFill=1;" parent="1" source="wwL6HSC9P-zvST8-2VD3-3" edge="1">
          <mxGeometry relative="1" as="geometry">
            <mxPoint x="430" y="320" as="targetPoint" />
          </mxGeometry>
        </mxCell>
        <mxCell id="wwL6HSC9P-zvST8-2VD3-3" value="IDLE" style="ellipse;whiteSpace=wrap;html=1;" parent="1" vertex="1">
          <mxGeometry x="370" y="380" width="120" height="80" as="geometry" />
        </mxCell>
        <mxCell id="wwL6HSC9P-zvST8-2VD3-8" style="edgeStyle=orthogonalEdgeStyle;orthogonalLoop=1;jettySize=auto;html=1;entryX=0;entryY=0.5;entryDx=0;entryDy=0;curved=1;exitX=0.5;exitY=0;exitDx=0;exitDy=0;" parent="1" source="wwL6HSC9P-zvST8-2VD3-4" target="wwL6HSC9P-zvST8-2VD3-3" edge="1">
          <mxGeometry relative="1" as="geometry">
            <Array as="points">
              <mxPoint x="260" y="420" />
            </Array>
          </mxGeometry>
        </mxCell>
        <mxCell id="gSLNPjiPlKFrK9HhmnGK-8" style="edgeStyle=orthogonalEdgeStyle;rounded=0;orthogonalLoop=1;jettySize=auto;html=1;exitX=0;exitY=0.5;exitDx=0;exitDy=0;endArrow=none;endFill=0;" parent="1" source="wwL6HSC9P-zvST8-2VD3-4" edge="1">
          <mxGeometry relative="1" as="geometry">
            <mxPoint x="120" y="539.952380952381" as="targetPoint" />
          </mxGeometry>
        </mxCell>
        <mxCell id="wwL6HSC9P-zvST8-2VD3-4" value="FINISH" style="ellipse;whiteSpace=wrap;html=1;" parent="1" vertex="1">
          <mxGeometry x="200" y="500" width="120" height="80" as="geometry" />
        </mxCell>
        <mxCell id="yeNwF6IGBr0BAYIFnIZZ-1" value="i_en_enable &lt;br&gt;&amp;amp;&amp;amp; i_key_valid" style="text;html=1;strokeColor=none;fillColor=none;align=center;verticalAlign=middle;whiteSpace=wrap;rounded=0;" parent="1" vertex="1">
          <mxGeometry x="570" y="420" width="100" height="30" as="geometry" />
        </mxCell>
        <mxCell id="yeNwF6IGBr0BAYIFnIZZ-2" value="key_round_valid" style="text;html=1;strokeColor=none;fillColor=none;align=center;verticalAlign=middle;whiteSpace=wrap;rounded=0;" parent="1" vertex="1">
          <mxGeometry x="580" y="640" width="80" height="30" as="geometry" />
        </mxCell>
        <mxCell id="yeNwF6IGBr0BAYIFnIZZ-3" value="en_round == 32" style="text;html=1;strokeColor=none;fillColor=none;align=center;verticalAlign=middle;whiteSpace=wrap;rounded=0;" parent="1" vertex="1">
          <mxGeometry x="160" y="640" width="120" height="30" as="geometry" />
        </mxCell>
        <mxCell id="gSLNPjiPlKFrK9HhmnGK-1" value="i_rstn_n" style="text;html=1;strokeColor=none;fillColor=none;align=center;verticalAlign=middle;whiteSpace=wrap;rounded=0;" parent="1" vertex="1">
          <mxGeometry x="430" y="320" width="80" height="30" as="geometry" />
        </mxCell>
        <mxCell id="gSLNPjiPlKFrK9HhmnGK-6" value="key_round = key_round + 1" style="text;html=1;strokeColor=none;fillColor=none;align=center;verticalAlign=middle;whiteSpace=wrap;rounded=0;" parent="1" vertex="1">
          <mxGeometry x="660" y="510" width="120" height="30" as="geometry" />
        </mxCell>
        <mxCell id="gSLNPjiPlKFrK9HhmnGK-7" value="round_key[key_round] &lt;br&gt;= Sbox(w[key_round])" style="text;html=1;strokeColor=none;fillColor=none;align=center;verticalAlign=middle;whiteSpace=wrap;rounded=0;" parent="1" vertex="1">
          <mxGeometry x="650" y="560" width="140" height="30" as="geometry" />
        </mxCell>
        <mxCell id="gSLNPjiPlKFrK9HhmnGK-9" value="o_en_done = 1" style="text;html=1;strokeColor=none;fillColor=none;align=center;verticalAlign=middle;whiteSpace=wrap;rounded=0;" parent="1" vertex="1">
          <mxGeometry x="100" y="510" width="100" height="30" as="geometry" />
        </mxCell>
        <mxCell id="gSLNPjiPlKFrK9HhmnGK-10" value="o_cipher =&amp;nbsp; data" style="text;html=1;strokeColor=none;fillColor=none;align=center;verticalAlign=middle;whiteSpace=wrap;rounded=0;" parent="1" vertex="1">
          <mxGeometry x="100" y="540" width="100" height="30" as="geometry" />
        </mxCell>
        <mxCell id="gSLNPjiPlKFrK9HhmnGK-15" value="en_round = en_round + 1" style="text;html=1;strokeColor=none;fillColor=none;align=center;verticalAlign=middle;whiteSpace=wrap;rounded=0;" parent="1" vertex="1">
          <mxGeometry x="420" y="720" width="160" height="40" as="geometry" />
        </mxCell>
        <mxCell id="gSLNPjiPlKFrK9HhmnGK-16" value="data &lt;br&gt;= L(Sbox(data ^ key_round[en_round]))&amp;nbsp;" style="text;html=1;strokeColor=none;fillColor=none;align=center;verticalAlign=middle;whiteSpace=wrap;rounded=0;" parent="1" vertex="1">
          <mxGeometry x="420" y="760" width="220" height="40" as="geometry" />
        </mxCell>
      </root>
    </mxGraphModel>
  </diagram>
  <diagram id="6VkpFODmhjl37DMeP5MT" name="serpent_en_cp_dp">
    <mxGraphModel dx="2302" dy="1453" grid="1" gridSize="10" guides="1" tooltips="1" connect="1" arrows="1" fold="1" page="1" pageScale="1" pageWidth="850" pageHeight="1100" math="0" shadow="0">
      <root>
        <mxCell id="0" />
        <mxCell id="1" parent="0" />
        <mxCell id="Hi7BtH4HFim6eftPPoyI-2" value="Serpent Encrypt" style="swimlane;whiteSpace=wrap;html=1;" parent="1" vertex="1">
          <mxGeometry x="270" y="260" width="1170" height="600" as="geometry" />
        </mxCell>
        <mxCell id="Hi7BtH4HFim6eftPPoyI-3" value="Key Schedule" style="swimlane;whiteSpace=wrap;html=1;" parent="Hi7BtH4HFim6eftPPoyI-2" vertex="1">
          <mxGeometry x="150" y="290" width="150" height="230" as="geometry" />
        </mxCell>
        <mxCell id="GlqhFZzti4vzMKmGRmvo-1" style="edgeStyle=orthogonalEdgeStyle;rounded=0;orthogonalLoop=1;jettySize=auto;html=1;exitX=1;exitY=0.5;exitDx=0;exitDy=0;fillColor=#0050ef;strokeColor=#001DBC;dashed=1;dashPattern=8 8;" parent="Hi7BtH4HFim6eftPPoyI-2" source="Hi7BtH4HFim6eftPPoyI-4" edge="1">
          <mxGeometry relative="1" as="geometry">
            <mxPoint x="720" y="435.19047619047615" as="targetPoint" />
          </mxGeometry>
        </mxCell>
        <mxCell id="Hi7BtH4HFim6eftPPoyI-4" value="Key Mem" style="swimlane;whiteSpace=wrap;html=1;" parent="Hi7BtH4HFim6eftPPoyI-2" vertex="1">
          <mxGeometry x="470" y="365" width="160" height="140" as="geometry" />
        </mxCell>
        <mxCell id="Hi7BtH4HFim6eftPPoyI-13" style="edgeStyle=orthogonalEdgeStyle;rounded=0;orthogonalLoop=1;jettySize=auto;html=1;exitX=1;exitY=0.75;exitDx=0;exitDy=0;fillColor=#0050ef;strokeColor=#001DBC;dashed=1;dashPattern=8 8;" parent="Hi7BtH4HFim6eftPPoyI-2" source="Hi7BtH4HFim6eftPPoyI-5" edge="1">
          <mxGeometry relative="1" as="geometry">
            <mxPoint x="390" y="500" as="targetPoint" />
            <Array as="points">
              <mxPoint x="970" y="450" />
              <mxPoint x="970" y="560" />
              <mxPoint x="390" y="560" />
            </Array>
          </mxGeometry>
        </mxCell>
        <mxCell id="GlqhFZzti4vzMKmGRmvo-2" style="edgeStyle=orthogonalEdgeStyle;rounded=0;orthogonalLoop=1;jettySize=auto;html=1;exitX=1;exitY=0.5;exitDx=0;exitDy=0;entryX=0.75;entryY=1;entryDx=0;entryDy=0;fillColor=#e51400;strokeColor=#B20000;dashed=1;dashPattern=8 8;" parent="Hi7BtH4HFim6eftPPoyI-2" source="Hi7BtH4HFim6eftPPoyI-5" target="tofsHWAKdjw1fVBktGl1-1" edge="1">
          <mxGeometry relative="1" as="geometry">
            <Array as="points">
              <mxPoint x="1000" y="380" />
              <mxPoint x="1000" y="290" />
            </Array>
          </mxGeometry>
        </mxCell>
        <mxCell id="Hi7BtH4HFim6eftPPoyI-5" value="Serpent_Encrypt" style="swimlane;whiteSpace=wrap;html=1;" parent="Hi7BtH4HFim6eftPPoyI-2" vertex="1">
          <mxGeometry x="720" y="240" width="180" height="280" as="geometry" />
        </mxCell>
        <mxCell id="Hi7BtH4HFim6eftPPoyI-8" style="edgeStyle=orthogonalEdgeStyle;rounded=0;orthogonalLoop=1;jettySize=auto;html=1;fillColor=#0050ef;strokeColor=#001DBC;dashed=1;dashPattern=8 8;" parent="Hi7BtH4HFim6eftPPoyI-2" edge="1">
          <mxGeometry relative="1" as="geometry">
            <mxPoint x="470" y="495" as="targetPoint" />
            <mxPoint x="300" y="495" as="sourcePoint" />
          </mxGeometry>
        </mxCell>
        <mxCell id="Hi7BtH4HFim6eftPPoyI-6" value="" style="endArrow=classic;html=1;rounded=0;entryX=0;entryY=0.5;entryDx=0;entryDy=0;fillColor=#0050ef;strokeColor=#001DBC;dashed=1;dashPattern=8 8;" parent="Hi7BtH4HFim6eftPPoyI-2" edge="1">
          <mxGeometry width="50" height="50" relative="1" as="geometry">
            <mxPoint x="300" y="454.66" as="sourcePoint" />
            <mxPoint x="470" y="454.66000000000014" as="targetPoint" />
          </mxGeometry>
        </mxCell>
        <mxCell id="l0fsLYCRih1uFFmwPQ_l-1" value="o_data" style="text;html=1;strokeColor=none;fillColor=none;align=center;verticalAlign=middle;whiteSpace=wrap;rounded=0;" parent="Hi7BtH4HFim6eftPPoyI-2" vertex="1">
          <mxGeometry x="630" y="435" width="40" height="30" as="geometry" />
        </mxCell>
        <mxCell id="l0fsLYCRih1uFFmwPQ_l-3" value="o_addr" style="text;html=1;strokeColor=none;fillColor=none;align=center;verticalAlign=middle;whiteSpace=wrap;rounded=0;" parent="Hi7BtH4HFim6eftPPoyI-2" vertex="1">
          <mxGeometry x="910" y="420" width="40" height="30" as="geometry" />
        </mxCell>
        <mxCell id="LTsyI-XxHoTCHmxRJaT3-14" value="" style="shape=trapezoid;perimeter=trapezoidPerimeter;whiteSpace=wrap;html=1;fixedSize=1;rotation=90;" parent="Hi7BtH4HFim6eftPPoyI-2" vertex="1">
          <mxGeometry x="10" y="369.66" width="120" height="40" as="geometry" />
        </mxCell>
        <mxCell id="LTsyI-XxHoTCHmxRJaT3-15" value="" style="endArrow=classic;html=1;rounded=0;fillColor=#0050ef;strokeColor=#001DBC;dashed=1;dashPattern=8 8;exitX=0.667;exitY=0;exitDx=0;exitDy=0;exitPerimeter=0;" parent="Hi7BtH4HFim6eftPPoyI-2" source="LTsyI-XxHoTCHmxRJaT3-14" edge="1">
          <mxGeometry width="50" height="50" relative="1" as="geometry">
            <mxPoint x="140" y="410" as="sourcePoint" />
            <mxPoint x="150" y="410" as="targetPoint" />
          </mxGeometry>
        </mxCell>
        <mxCell id="LTsyI-XxHoTCHmxRJaT3-19" value="i_addr" style="text;html=1;strokeColor=none;fillColor=none;align=center;verticalAlign=middle;whiteSpace=wrap;rounded=0;" parent="Hi7BtH4HFim6eftPPoyI-2" vertex="1">
          <mxGeometry x="420" y="465" width="40" height="30" as="geometry" />
        </mxCell>
        <mxCell id="LTsyI-XxHoTCHmxRJaT3-23" style="edgeStyle=orthogonalEdgeStyle;rounded=0;orthogonalLoop=1;jettySize=auto;html=1;exitX=0.5;exitY=0;exitDx=0;exitDy=0;entryX=0;entryY=0.25;entryDx=0;entryDy=0;fillColor=#0050ef;strokeColor=#001DBC;dashed=1;dashPattern=8 8;" parent="Hi7BtH4HFim6eftPPoyI-2" source="LTsyI-XxHoTCHmxRJaT3-22" target="Hi7BtH4HFim6eftPPoyI-5" edge="1">
          <mxGeometry relative="1" as="geometry" />
        </mxCell>
        <mxCell id="LTsyI-XxHoTCHmxRJaT3-22" value="" style="shape=trapezoid;perimeter=trapezoidPerimeter;whiteSpace=wrap;html=1;fixedSize=1;rotation=90;" parent="Hi7BtH4HFim6eftPPoyI-2" vertex="1">
          <mxGeometry x="510" y="250" width="120" height="40" as="geometry" />
        </mxCell>
        <mxCell id="LTsyI-XxHoTCHmxRJaT3-24" value="i_data" style="text;html=1;strokeColor=none;fillColor=none;align=center;verticalAlign=middle;whiteSpace=wrap;rounded=0;" parent="Hi7BtH4HFim6eftPPoyI-2" vertex="1">
          <mxGeometry x="420" y="424.66" width="40" height="30" as="geometry" />
        </mxCell>
        <mxCell id="LTsyI-XxHoTCHmxRJaT3-20" value="" style="endArrow=classic;html=1;rounded=0;exitX=1;exitY=0.25;exitDx=0;exitDy=0;fillColor=#e51400;strokeColor=#B20000;dashed=1;dashPattern=8 8;entryX=0;entryY=0.5;entryDx=0;entryDy=0;" parent="Hi7BtH4HFim6eftPPoyI-2" source="Hi7BtH4HFim6eftPPoyI-3" target="LTsyI-XxHoTCHmxRJaT3-22" edge="1">
          <mxGeometry width="50" height="50" relative="1" as="geometry">
            <mxPoint x="610" y="240" as="sourcePoint" />
            <mxPoint x="590" y="90" as="targetPoint" />
            <Array as="points">
              <mxPoint x="430" y="350" />
              <mxPoint x="430" y="90" />
              <mxPoint x="570" y="90" />
            </Array>
          </mxGeometry>
        </mxCell>
        <mxCell id="LTsyI-XxHoTCHmxRJaT3-25" value="o_addr" style="text;html=1;strokeColor=none;fillColor=none;align=center;verticalAlign=middle;whiteSpace=wrap;rounded=0;" parent="Hi7BtH4HFim6eftPPoyI-2" vertex="1">
          <mxGeometry x="310" y="465" width="40" height="30" as="geometry" />
        </mxCell>
        <mxCell id="agnov4f7QLiAocrM8ebn-1" value="round_key_valid" style="text;html=1;strokeColor=none;fillColor=none;align=center;verticalAlign=middle;whiteSpace=wrap;rounded=0;" parent="Hi7BtH4HFim6eftPPoyI-2" vertex="1">
          <mxGeometry x="310" y="310" width="100" height="30" as="geometry" />
        </mxCell>
        <mxCell id="agnov4f7QLiAocrM8ebn-2" value="i_data" style="text;html=1;strokeColor=none;fillColor=none;align=center;verticalAlign=middle;whiteSpace=wrap;rounded=0;" parent="Hi7BtH4HFim6eftPPoyI-2" vertex="1">
          <mxGeometry x="670" y="275" width="50" height="30" as="geometry" />
        </mxCell>
        <mxCell id="agnov4f7QLiAocrM8ebn-3" value="" style="endArrow=classic;html=1;rounded=0;entryX=0;entryY=0.25;entryDx=0;entryDy=0;fillColor=#e51400;strokeColor=#B20000;dashed=1;dashPattern=8 8;" parent="Hi7BtH4HFim6eftPPoyI-2" edge="1">
          <mxGeometry width="50" height="50" relative="1" as="geometry">
            <mxPoint x="380" y="415" as="sourcePoint" />
            <mxPoint x="470" y="415.0000000000001" as="targetPoint" />
          </mxGeometry>
        </mxCell>
        <mxCell id="agnov4f7QLiAocrM8ebn-4" value="i_read_write_en" style="text;html=1;strokeColor=none;fillColor=none;align=center;verticalAlign=middle;whiteSpace=wrap;rounded=0;" parent="Hi7BtH4HFim6eftPPoyI-2" vertex="1">
          <mxGeometry x="380" y="384.65999999999997" width="90" height="30" as="geometry" />
        </mxCell>
        <mxCell id="agnov4f7QLiAocrM8ebn-5" value="o_round_key" style="text;html=1;strokeColor=none;fillColor=none;align=center;verticalAlign=middle;whiteSpace=wrap;rounded=0;" parent="Hi7BtH4HFim6eftPPoyI-2" vertex="1">
          <mxGeometry x="300" y="425" width="80" height="30" as="geometry" />
        </mxCell>
        <mxCell id="zfavxnT_QYUf4P8dQDxn-5" value="i_key" style="text;html=1;strokeColor=none;fillColor=none;align=center;verticalAlign=middle;whiteSpace=wrap;rounded=0;" parent="Hi7BtH4HFim6eftPPoyI-2" vertex="1">
          <mxGeometry x="160" y="379.6600000000001" width="40" height="30" as="geometry" />
        </mxCell>
        <mxCell id="GlqhFZzti4vzMKmGRmvo-4" style="edgeStyle=orthogonalEdgeStyle;rounded=0;orthogonalLoop=1;jettySize=auto;html=1;exitX=1;exitY=0.5;exitDx=0;exitDy=0;fillColor=#0050ef;strokeColor=#001DBC;dashed=1;dashPattern=8 8;" parent="Hi7BtH4HFim6eftPPoyI-2" source="zfavxnT_QYUf4P8dQDxn-6" edge="1">
          <mxGeometry relative="1" as="geometry">
            <mxPoint x="1170" y="479.9191919191919" as="targetPoint" />
          </mxGeometry>
        </mxCell>
        <mxCell id="zfavxnT_QYUf4P8dQDxn-6" value="cipher" style="rounded=1;whiteSpace=wrap;html=1;" parent="Hi7BtH4HFim6eftPPoyI-2" vertex="1">
          <mxGeometry x="1040" y="440" width="80" height="80" as="geometry" />
        </mxCell>
        <mxCell id="tofsHWAKdjw1fVBktGl1-6" style="edgeStyle=orthogonalEdgeStyle;rounded=0;orthogonalLoop=1;jettySize=auto;html=1;entryX=0;entryY=0.5;entryDx=0;entryDy=0;fillColor=#0050ef;strokeColor=#001DBC;dashed=1;dashPattern=8 8;exitX=0.5;exitY=0;exitDx=0;exitDy=0;" parent="Hi7BtH4HFim6eftPPoyI-2" source="tofsHWAKdjw1fVBktGl1-1" target="zfavxnT_QYUf4P8dQDxn-6" edge="1">
          <mxGeometry relative="1" as="geometry">
            <Array as="points">
              <mxPoint x="1120" y="260" />
              <mxPoint x="1120" y="400" />
              <mxPoint x="1020" y="400" />
              <mxPoint x="1020" y="480" />
            </Array>
          </mxGeometry>
        </mxCell>
        <mxCell id="tofsHWAKdjw1fVBktGl1-1" value="" style="shape=trapezoid;perimeter=trapezoidPerimeter;whiteSpace=wrap;html=1;fixedSize=1;rotation=90;" parent="Hi7BtH4HFim6eftPPoyI-2" vertex="1">
          <mxGeometry x="1000" y="240" width="120" height="40" as="geometry" />
        </mxCell>
        <mxCell id="zfavxnT_QYUf4P8dQDxn-8" value="" style="endArrow=classic;html=1;rounded=0;exitX=1;exitY=0.25;exitDx=0;exitDy=0;entryX=0;entryY=0.5;entryDx=0;entryDy=0;fillColor=#e51400;strokeColor=#B20000;dashed=1;dashPattern=8 8;" parent="Hi7BtH4HFim6eftPPoyI-2" source="Hi7BtH4HFim6eftPPoyI-5" target="tofsHWAKdjw1fVBktGl1-1" edge="1">
          <mxGeometry width="50" height="50" relative="1" as="geometry">
            <mxPoint x="1010" y="270" as="sourcePoint" />
            <mxPoint x="1090" y="100" as="targetPoint" />
            <Array as="points">
              <mxPoint x="980" y="310" />
              <mxPoint x="980" y="100" />
              <mxPoint x="1060" y="100" />
            </Array>
          </mxGeometry>
        </mxCell>
        <mxCell id="tofsHWAKdjw1fVBktGl1-8" value="o_cipher" style="text;html=1;strokeColor=none;fillColor=none;align=center;verticalAlign=middle;whiteSpace=wrap;rounded=0;" parent="Hi7BtH4HFim6eftPPoyI-2" vertex="1">
          <mxGeometry x="900" y="349.65999999999997" width="50" height="30" as="geometry" />
        </mxCell>
        <mxCell id="tofsHWAKdjw1fVBktGl1-10" value="o_en_done" style="text;html=1;strokeColor=none;fillColor=none;align=center;verticalAlign=middle;whiteSpace=wrap;rounded=0;" parent="Hi7BtH4HFim6eftPPoyI-2" vertex="1">
          <mxGeometry x="900" y="275" width="70" height="30" as="geometry" />
        </mxCell>
        <mxCell id="Hi7BtH4HFim6eftPPoyI-14" value="i_round_key" style="text;html=1;strokeColor=none;fillColor=none;align=center;verticalAlign=middle;whiteSpace=wrap;rounded=0;" parent="Hi7BtH4HFim6eftPPoyI-2" vertex="1">
          <mxGeometry x="650" y="405" width="70" height="30" as="geometry" />
        </mxCell>
        <mxCell id="l0fsLYCRih1uFFmwPQ_l-4" value="" style="endArrow=none;html=1;rounded=0;exitX=0;exitY=0.25;exitDx=0;exitDy=0;entryX=1;entryY=0.25;entryDx=0;entryDy=0;" parent="1" source="Hi7BtH4HFim6eftPPoyI-2" target="Hi7BtH4HFim6eftPPoyI-2" edge="1">
          <mxGeometry width="50" height="50" relative="1" as="geometry">
            <mxPoint x="780" y="560" as="sourcePoint" />
            <mxPoint x="830" y="510" as="targetPoint" />
          </mxGeometry>
        </mxCell>
        <mxCell id="LTsyI-XxHoTCHmxRJaT3-1" value="" style="endArrow=classic;html=1;rounded=0;" parent="1" edge="1">
          <mxGeometry width="50" height="50" relative="1" as="geometry">
            <mxPoint x="80" y="560" as="sourcePoint" />
            <mxPoint x="240" y="560" as="targetPoint" />
          </mxGeometry>
        </mxCell>
        <mxCell id="LTsyI-XxHoTCHmxRJaT3-3" value="i_plaintext" style="text;html=1;strokeColor=none;fillColor=none;align=center;verticalAlign=middle;whiteSpace=wrap;rounded=0;" parent="1" vertex="1">
          <mxGeometry x="80" y="530" width="120" height="30" as="geometry" />
        </mxCell>
        <mxCell id="LTsyI-XxHoTCHmxRJaT3-4" value="" style="endArrow=none;html=1;rounded=0;" parent="1" edge="1">
          <mxGeometry width="50" height="50" relative="1" as="geometry">
            <mxPoint x="210" y="570" as="sourcePoint" />
            <mxPoint x="230" y="550" as="targetPoint" />
          </mxGeometry>
        </mxCell>
        <mxCell id="LTsyI-XxHoTCHmxRJaT3-5" value="128" style="text;html=1;strokeColor=none;fillColor=none;align=center;verticalAlign=middle;whiteSpace=wrap;rounded=0;" parent="1" vertex="1">
          <mxGeometry x="210" y="520" width="20" height="30" as="geometry" />
        </mxCell>
        <mxCell id="LTsyI-XxHoTCHmxRJaT3-6" value="" style="endArrow=classic;html=1;rounded=0;" parent="1" edge="1">
          <mxGeometry width="50" height="50" relative="1" as="geometry">
            <mxPoint x="80" y="680" as="sourcePoint" />
            <mxPoint x="240" y="680" as="targetPoint" />
          </mxGeometry>
        </mxCell>
        <mxCell id="LTsyI-XxHoTCHmxRJaT3-7" value="i_key" style="text;html=1;strokeColor=none;fillColor=none;align=center;verticalAlign=middle;whiteSpace=wrap;rounded=0;" parent="1" vertex="1">
          <mxGeometry x="80" y="650" width="120" height="30" as="geometry" />
        </mxCell>
        <mxCell id="LTsyI-XxHoTCHmxRJaT3-8" value="" style="endArrow=none;html=1;rounded=0;" parent="1" edge="1">
          <mxGeometry width="50" height="50" relative="1" as="geometry">
            <mxPoint x="210" y="690" as="sourcePoint" />
            <mxPoint x="230" y="670" as="targetPoint" />
          </mxGeometry>
        </mxCell>
        <mxCell id="LTsyI-XxHoTCHmxRJaT3-9" value="256" style="text;html=1;strokeColor=none;fillColor=none;align=center;verticalAlign=middle;whiteSpace=wrap;rounded=0;" parent="1" vertex="1">
          <mxGeometry x="210" y="640" width="20" height="30" as="geometry" />
        </mxCell>
        <mxCell id="LTsyI-XxHoTCHmxRJaT3-10" value="" style="endArrow=classic;html=1;rounded=0;" parent="1" edge="1">
          <mxGeometry width="50" height="50" relative="1" as="geometry">
            <mxPoint x="80" y="320" as="sourcePoint" />
            <mxPoint x="240" y="320" as="targetPoint" />
          </mxGeometry>
        </mxCell>
        <mxCell id="LTsyI-XxHoTCHmxRJaT3-11" value="" style="endArrow=classic;html=1;rounded=0;" parent="1" edge="1">
          <mxGeometry width="50" height="50" relative="1" as="geometry">
            <mxPoint x="80" y="380" as="sourcePoint" />
            <mxPoint x="240" y="380" as="targetPoint" />
          </mxGeometry>
        </mxCell>
        <mxCell id="LTsyI-XxHoTCHmxRJaT3-12" value="" style="endArrow=classic;html=1;rounded=0;fillColor=#0050ef;strokeColor=#001DBC;dashed=1;dashPattern=8 8;" parent="1" edge="1">
          <mxGeometry width="50" height="50" relative="1" as="geometry">
            <mxPoint x="240" y="680" as="sourcePoint" />
            <mxPoint x="320" y="680" as="targetPoint" />
          </mxGeometry>
        </mxCell>
        <mxCell id="LTsyI-XxHoTCHmxRJaT3-13" value="" style="endArrow=classic;html=1;rounded=0;entryX=0.75;entryY=1;entryDx=0;entryDy=0;fillColor=#0050ef;strokeColor=#001DBC;dashed=1;dashPattern=8 8;" parent="1" target="LTsyI-XxHoTCHmxRJaT3-22" edge="1">
          <mxGeometry width="50" height="50" relative="1" as="geometry">
            <mxPoint x="240" y="560" as="sourcePoint" />
            <mxPoint x="490" y="570" as="targetPoint" />
            <Array as="points">
              <mxPoint x="380" y="560" />
              <mxPoint x="380" y="520" />
              <mxPoint x="380" y="460" />
              <mxPoint x="740" y="460" />
              <mxPoint x="740" y="560" />
            </Array>
          </mxGeometry>
        </mxCell>
        <mxCell id="LTsyI-XxHoTCHmxRJaT3-16" value="" style="endArrow=classic;html=1;rounded=0;entryX=0;entryY=0.5;entryDx=0;entryDy=0;fillColor=#e51400;strokeColor=#B20000;dashed=1;dashPattern=8 8;" parent="1" target="LTsyI-XxHoTCHmxRJaT3-14" edge="1">
          <mxGeometry width="50" height="50" relative="1" as="geometry">
            <mxPoint x="240" y="380" as="sourcePoint" />
            <mxPoint x="490" y="520" as="targetPoint" />
            <Array as="points">
              <mxPoint x="340" y="380" />
            </Array>
          </mxGeometry>
        </mxCell>
        <mxCell id="LTsyI-XxHoTCHmxRJaT3-17" value="" style="endArrow=oval;html=1;rounded=0;endFill=0;fillColor=#e51400;strokeColor=#B20000;dashed=1;dashPattern=8 8;" parent="1" edge="1">
          <mxGeometry width="50" height="50" relative="1" as="geometry">
            <mxPoint x="240" y="320" as="sourcePoint" />
            <mxPoint x="340" y="380" as="targetPoint" />
            <Array as="points">
              <mxPoint x="340" y="320" />
            </Array>
          </mxGeometry>
        </mxCell>
        <mxCell id="zfavxnT_QYUf4P8dQDxn-2" value="i_en_enable" style="text;html=1;strokeColor=none;fillColor=none;align=center;verticalAlign=middle;whiteSpace=wrap;rounded=0;" parent="1" vertex="1">
          <mxGeometry x="80" y="290" width="120" height="30" as="geometry" />
        </mxCell>
        <mxCell id="zfavxnT_QYUf4P8dQDxn-3" value="i_key_valid" style="text;html=1;strokeColor=none;fillColor=none;align=center;verticalAlign=middle;whiteSpace=wrap;rounded=0;" parent="1" vertex="1">
          <mxGeometry x="80" y="350" width="120" height="30" as="geometry" />
        </mxCell>
        <mxCell id="tofsHWAKdjw1fVBktGl1-7" value="" style="endArrow=classic;html=1;rounded=0;startArrow=oval;startFill=1;fillColor=#e51400;strokeColor=#B20000;dashed=1;dashPattern=8 8;" parent="1" edge="1">
          <mxGeometry width="50" height="50" relative="1" as="geometry">
            <mxPoint x="1330" y="360" as="sourcePoint" />
            <mxPoint x="1440" y="360" as="targetPoint" />
          </mxGeometry>
        </mxCell>
        <mxCell id="tofsHWAKdjw1fVBktGl1-12" value="" style="endArrow=classic;html=1;rounded=0;" parent="1" edge="1">
          <mxGeometry width="50" height="50" relative="1" as="geometry">
            <mxPoint x="1440" y="360" as="sourcePoint" />
            <mxPoint x="1540" y="360" as="targetPoint" />
          </mxGeometry>
        </mxCell>
        <mxCell id="tofsHWAKdjw1fVBktGl1-13" value="" style="endArrow=classic;html=1;rounded=0;" parent="1" edge="1">
          <mxGeometry width="50" height="50" relative="1" as="geometry">
            <mxPoint x="1440" y="740" as="sourcePoint" />
            <mxPoint x="1540" y="740" as="targetPoint" />
          </mxGeometry>
        </mxCell>
        <mxCell id="tofsHWAKdjw1fVBktGl1-14" value="o_en_done" style="text;html=1;strokeColor=none;fillColor=none;align=center;verticalAlign=middle;whiteSpace=wrap;rounded=0;" parent="1" vertex="1">
          <mxGeometry x="1450" y="330" width="70" height="30" as="geometry" />
        </mxCell>
        <mxCell id="tofsHWAKdjw1fVBktGl1-15" value="o_cipher" style="text;html=1;strokeColor=none;fillColor=none;align=center;verticalAlign=middle;whiteSpace=wrap;rounded=0;" parent="1" vertex="1">
          <mxGeometry x="1450" y="710" width="50" height="30" as="geometry" />
        </mxCell>
        <mxCell id="tofsHWAKdjw1fVBktGl1-16" value="" style="endArrow=none;html=1;rounded=0;" parent="1" edge="1">
          <mxGeometry width="50" height="50" relative="1" as="geometry">
            <mxPoint x="1510" y="750" as="sourcePoint" />
            <mxPoint x="1530" y="730" as="targetPoint" />
          </mxGeometry>
        </mxCell>
        <mxCell id="tofsHWAKdjw1fVBktGl1-17" value="128" style="text;html=1;strokeColor=none;fillColor=none;align=center;verticalAlign=middle;whiteSpace=wrap;rounded=0;" parent="1" vertex="1">
          <mxGeometry x="1510" y="700" width="20" height="30" as="geometry" />
        </mxCell>
      </root>
    </mxGraphModel>
  </diagram>
</mxfile>
